<?xml version="1.0" encoding="UTF-8" standalone="no"?>
<svg
   xmlns:dc="http://purl.org/dc/elements/1.1/"
   xmlns:cc="http://creativecommons.org/ns#"
   xmlns:rdf="http://www.w3.org/1999/02/22-rdf-syntax-ns#"
   xmlns:svg="http://www.w3.org/2000/svg"
   xmlns="http://www.w3.org/2000/svg"
   version="1.1"
   id="svg23294"
   viewBox="0 0 693.29975 308.51977"
   height="87.071136mm"
   width="195.6646mm">
  <defs
     id="defs23296" />
  <metadata
     id="metadata23299">
    <rdf:RDF>
      <cc:Work
         rdf:about="">
        <dc:format>image/svg+xml</dc:format>
        <dc:type
           rdf:resource="http://purl.org/dc/dcmitype/StillImage" />
        <dc:title></dc:title>
      </cc:Work>
    </rdf:RDF>
  </metadata>
  <g
     transform="translate(659.08543,-393.83546)"
     id="layer1">
    <path
       id="path23853"
       d="m -271.50008,700.02116 c -2.50959,-1.18219 -4.56269,-2.5946 -4.56269,-3.1387 2e-4,-0.5441 -63.39249,-0.81886 -140.87259,-0.61062 -151.56619,0.40738 -145.68127,0.72529 -173.46569,-9.3709 -16.97399,-6.16792 -36.74798,-20.30328 -39.40075,-28.16546 -0.62157,-1.84172 -3.87035,-5.08456 -7.21973,-7.20632 -3.34937,-2.12176 -6.09238,-4.44674 -6.09563,-5.16661 0,-0.7199 -1.18392,-2.45588 -2.62397,-3.85775 -1.43985,-1.40188 -4.84235,-6.88883 -7.56123,-12.19322 -4.20436,-8.20237 -5.05205,-13.06996 -5.66956,-32.55578 -0.80449,-25.37735 2.64385,-44.70173 11.08927,-62.14503 2.61789,-5.40676 4.75961,-10.55768 4.75961,-11.44646 0,-2.95474 8.88265,-19.17234 12.57962,-22.96721 2.0026,-2.05581 4.77725,-6.17877 6.16559,-9.16213 1.38854,-2.98337 3.10643,-5.4243 3.81783,-5.4243 0.71141,0 5.73608,-3.8967 11.16573,-8.65936 5.42985,-4.76263 10.85402,-8.6686 12.05376,-8.67992 1.19974,-0.0116 4.32482,-2.19054 6.94433,-4.84274 2.61951,-2.6522 5.57729,-4.82218 6.57261,-4.82218 0.99552,0 4.71479,-2.08536 8.26534,-4.63415 3.55054,-2.54877 10.10591,-5.54728 14.56742,-6.66334 15.04804,-3.76433 20.27084,-4.76833 22.30751,-4.28821 1.11538,0.26294 13.43521,1.28291 27.37741,2.2666 13.9422,0.98366 26.71832,2.35494 28.39139,3.04725 1.67306,0.69231 3.72637,1.44221 4.5629,1.66645 0.83653,0.22423 1.74911,0.58757 2.02795,0.80742 0.27885,0.21985 3.24473,0.79504 6.59086,1.27819 3.34613,0.48316 8.82161,1.66708 12.16774,2.63094 3.34613,0.96386 9.73419,1.95784 14.19569,2.20885 4.46151,0.251 9.02441,0.9267 10.13978,1.50156 1.11538,0.57487 4.30941,1.27813 7.09785,1.56283 2.78844,0.2847 10.08908,1.45028 16.22365,2.59015 6.13457,1.13988 12.97892,2.3815 15.20967,2.75915 2.23075,0.37766 4.05591,0.81946 4.05591,0.9818 0,0.97394 27.27966,4.16673 41.91907,4.90614 6.32479,0.31946 13.20321,1.448 15.28532,2.50786 2.0823,1.05988 6.94574,1.77829 10.80778,1.59647 6.25787,-0.29458 6.94433,-0.85536 6.30735,-5.15273 -1.39746,-9.42898 -5.52131,-13.75924 -17.52052,-18.39779 -6.52779,-2.52346 -14.54207,-5.14661 -17.80972,-5.82922 -3.26744,-0.68261 -7.58638,-2.67172 -9.5973,-4.42024 -2.01092,-1.74852 -5.90338,-4.65172 -8.65004,-6.45155 -6.9348,-4.54429 -15.42058,-20.67264 -14.86837,-28.2593 0.24843,-3.41201 2.33235,-7.99251 4.63104,-10.17888 3.73225,-3.54986 6.50568,-3.95342 25.9185,-3.77145 20.38238,0.19116 27.22592,1.60151 32.64117,6.72706 1.22407,1.15854 9.36327,7.31439 18.08734,13.67967 8.72386,6.36527 18.06665,13.5428 20.76181,15.95005 4.90542,4.3816 8.69405,4.26537 8.69405,-0.26675 0,-3.27418 11.48249,-14.24 20.74619,-19.81271 4.63794,-2.78995 10.64961,-4.55051 15.53841,-4.55051 4.38545,0 15.01904,-1.28216 23.63035,-2.84925 8.61111,-1.56709 16.4232,-2.39865 17.36011,-1.8479 0.93692,0.55075 2.80426,4.49639 4.15001,8.76809 1.34555,4.2717 3.91335,8.79222 5.70627,10.0456 5.03278,3.51834 10.17324,15.14037 8.21971,18.58396 -6.18648,10.90524 -22.15603,16.74092 -53.77795,19.65184 -12.26913,1.12941 -23.07429,2.73674 -24.01141,3.57183 -0.93712,0.83508 1.11619,3.10278 4.5629,5.03935 3.44672,1.93655 6.26679,4.71192 6.26679,6.16752 0,4.73843 38.13714,1.13185 87.05306,-8.23249 2.70651,-0.51812 5.44425,-1.67668 6.08387,-2.57459 2.83204,-3.97542 8.04389,-3.74824 12.27461,0.53504 3.73246,3.77889 5.43979,4.22959 10.64434,2.80986 3.4094,-0.93003 6.91857,-1.26794 7.7981,-0.75093 0.87952,0.517 2.17234,0.0579 2.8728,-1.02033 2.01437,-3.09995 9.14406,-2.2812 10.55348,1.21191 0.77732,1.9268 -0.15615,4.17068 -2.37696,5.7154 -3.58705,2.49474 -32.94192,9.6603 -36.154,8.8252 -0.89879,-0.23374 -5.46169,0.80561 -10.13978,2.30965 -5.78698,1.86066 -8.50525,3.84781 -8.50525,6.21785 0,4.07636 6.13376,6.08306 19.43451,6.3582 5.11228,0.1057 9.89156,0.75984 10.62102,1.45355 0.72925,0.6937 9.76055,1.62101 20.06967,2.06064 10.30891,0.43964 19.674619,1.53414 20.812302,2.43223 1.137886,0.89808 9.825853,2.22541 19.306548,2.94965 9.480695,0.72421 18.606498,1.49952 20.279562,1.72286 1.673063,0.22337 8.28927,1.10671 14.702681,1.96302 6.413412,0.8563 11.660748,2.16413 11.660748,2.90628 0,0.74216 2.965886,2.73235 6.590858,4.42266 3.624971,1.69028 9.643742,5.54002 13.3749788,8.55494 21.7376622,17.56421 25.2622492,23.24819 27.8369422,44.89307 1.178446,9.90831 2.203983,12.28225 5.879654,13.61147 2.448757,0.88553 4.483608,2.77152 4.521936,4.19109 0.03853,1.41959 1.102803,7.73144 2.365814,14.02633 1.263011,6.29489 2.296457,14.44724 2.296457,18.11632 0,7.98659 -7.573605,33.12673 -9.979572,33.12673 -0.93286,0 -2.817642,2.57512 -4.188135,5.72248 -1.370695,3.14735 -4.219771,6.244 -6.331279,6.88144 -2.111508,0.63743 -6.2653702,4.18434 -9.2306477,7.88202 -2.9650747,3.69768 -8.6557224,8.0204 -12.6455233,9.60603 -3.990004,1.58563 -9.091936,4.49628 -11.3381,6.4681 -3.663097,3.21609 -8.989321,3.68893 -51.740462,4.59338 -26.211333,0.55453 -56.098332,1.2885 -66.415562,1.63103 -10.31723,0.34253 -18.7586,0.0615 -18.7586,-0.62457 0,-0.68604 -2.96588,-0.63818 -6.59085,0.10628 -3.62497,0.74457 -18.91069,1.55738 -33.96827,1.80628 -15.05757,0.24888 -32.85289,1.37488 -39.54514,2.50219 -6.69226,1.12733 -15.13626,2.25099 -18.76468,2.49706 -3.62822,0.24606 -7.20249,1.02345 -7.94269,1.72755 -1.62541,1.54587 -2.41408,1.41787 -8.27488,-1.34294 z M -475.058,686.04872 c 10.73641,-0.35256 32.07335,-0.74468 47.41544,-0.87136 15.3419,-0.12673 27.42142,-0.95838 26.84325,-1.84815 -0.57817,-0.88977 -19.51888,-1.69575 -42.09023,-1.79104 -22.57136,-0.0953 -45.36761,-0.70442 -50.65835,-1.35362 -9.17914,-1.12634 -15.73004,1.04254 -15.73004,5.20791 0,1.73562 10.13511,3.39011 12.92639,2.11013 0.97504,-0.44707 10.55693,-1.10131 21.29354,-1.45387 z m 331.76349,-2.45429 c 32.31122,-0.29344 59.55397,-1.00734 60.539151,-1.58642 2.642021,-1.55319 26.391212,-2.31395 28.753579,-0.92108 3.535336,2.08448 7.890169,2.11551 10.47561,0.0746 1.375968,-1.08618 5.057317,-1.81291 8.180775,-1.61495 3.123458,0.19798 6.363523,0.26798 7.200055,0.15566 0.836532,-0.11245 1.903643,0.0135 2.371492,0.27784 0.46785,0.26522 2.977445,-1.40642 5.57688,-3.71476 2.599434,-2.30833 7.087098,-4.75387 9.972474,-5.43455 6.9400713,-1.63715 16.996503,-14.41095 28.718089,-36.47783 2.50696,-4.71983 4.499832,-32.01656 2.806083,-38.43571 -1.084145,-4.10819 -2.857795,-5.13597 -10.824418,-6.27225 -6.4912851,-0.92588 -9.77414047,-0.65581 -10.30100347,0.84735 -0.90974112,2.59567 -28.00810253,3.09754 -29.66392853,0.54937 -0.592163,-0.91132 -6.805821,-2.20092 -13.808353,-2.8658 -13.085184,-1.24241 -81.125345,-1.50589 -105.510705,-0.40856 -7.52879,0.33879 -13.82559,-0.1491 -13.9929,-1.0841 -0.93063,-5.20093 -0.24862,-6.24638 4.36011,-6.68483 4.21389,-0.4009 37.51415,-0.74324 56.78277,-0.58374 2.78844,0.0231 15.108274,0.0534 27.377408,0.0673 12.269135,0.0135 36.762586,0.28941 54.429734,0.61221 l 32.122217,0.58685 -1.35366,-7.01104 c -0.744666,-3.85608 -2.195263,-7.83565 -3.2238423,-8.84349 -1.0285794,-1.00801 -1.8701812,-3.36825 -1.8701812,-5.24518 0,-5.0481 -7.3896693,-17.6243 -12.2902253,-20.91619 -2.3483732,-1.57757 -6.7869612,-5.03829 -9.8635732,-7.69049 -12.206876,-10.52311 -14.555655,-11.62513 -26.567645,-12.46495 -9.645365,-0.67435 -12.11724,-0.27633 -12.11724,1.95115 0,3.25629 -7.117518,3.59106 -19.322367,0.90881 -4.492531,-0.98737 -19.979423,-2.70742 -34.415025,-3.82237 -18.26965,-1.41104 -27.16751,-2.90295 -29.27638,-4.90868 -2.68745,-2.55614 -1.6751,-2.88154 8.96437,-2.88154 13.75036,0 13.10324,-2.94236 -0.98498,-4.47929 -12.50194,-1.36388 -26.65403,-3.23676 -30.92633,-4.09281 -1.9519,-0.3911 -3.54892,0.0756 -3.54892,1.03719 0,0.96156 1.82516,1.74829 4.05591,1.74829 4.83506,0 5.37936,2.96196 0.84809,4.61581 -6.3913,2.33272 -9.23146,1.28374 -8.58048,-3.16915 0.52341,-3.57926 -0.43175,-4.43436 -5.44932,-4.87856 -3.34613,-0.29624 -9.8654,-1.85182 -14.48732,-3.45685 -9.67172,-3.35861 -41.49887,-3.14315 -42.69233,0.28902 -0.39768,1.14409 2.70753,3.74807 6.90053,5.78662 4.193,2.03852 9.40789,5.78705 11.58855,8.33004 2.18066,2.54298 6.85125,7.12185 10.37908,10.17526 11.01099,9.53024 20.85429,25.01464 23.96578,37.70054 2.83671,11.56642 2.20114,28.95976 -1.93447,52.92514 l -1.21697,7.05213 7.80459,-0.0687 c 4.29237,-0.0378 15.10502,0.45818 24.02803,1.10214 20.0504,1.44696 71.340253,3.2102 102.183844,3.51284 21.287455,0.20889 23.349278,-0.0928 26.36343,-3.85703 2.316128,-2.89252 4.13338,-3.57027 6.230286,-2.3236 2.595176,1.54296 2.595176,3.49961 0,15.86265 -2.612007,12.44267 -3.437791,14.0023 -7.016322,13.25046 -2.230752,-0.46868 -6.793653,-0.75721 -10.139781,-0.64119 -3.346128,0.11611 -15.209671,0.0656 -26.36343,-0.11226 -11.153758,-0.17785 -39.443747,-0.28397 -62.866637,-0.23596 -39.79033,0.0816 -43.14416,0.36475 -51.0684,4.31239 -4.6645,2.32381 -9.03779,5.08192 -9.71837,6.12915 -0.68038,1.0472 -4.88961,2.83943 -9.35354,3.98273 -5.3826,1.37858 -8.8786,3.67004 -10.37969,6.80346 -1.24476,2.59855 -3.02936,4.72469 -3.96567,4.72469 -0.93631,0 -1.70247,1.16747 -1.70247,2.59435 0,1.4269 -1.80366,4.14688 -4.00805,6.04441 -5.18711,4.4648 -3.51506,6.88501 3.52844,5.10744 3.05228,-0.7703 31.98614,-1.64064 64.29757,-1.93408 z m -242.2781,-0.23889 c 0,-1.06088 -1.36887,-1.92887 -3.04193,-1.92887 -1.67307,0 -3.04194,0.86799 -3.04194,1.92887 0,1.06088 1.36887,1.92887 3.04194,1.92887 1.67306,0 3.04193,-0.86799 3.04193,-1.92887 z m 124.88823,-0.48222 c 0.83653,-0.79566 3.19403,-1.44665 5.23902,-1.44665 2.04479,0 3.71786,-0.868 3.71786,-1.92888 0,-1.06087 1.14863,-1.92887 2.55238,-1.92887 4.80017,0 26.06005,-21.68672 25.42145,-25.93188 -0.32813,-2.18109 -1.50901,-4.03836 -2.62438,-4.12724 -1.11538,-0.0889 -4.56432,-1.16207 -7.66426,-2.38482 -3.09993,-1.22275 -7.66283,-2.17102 -10.13978,-2.10727 -2.47694,0.0638 -21.8425,-0.504 -43.03465,-1.26169 -21.19214,-0.75768 -44.00664,-1.18917 -50.6989,-0.95887 -6.69225,0.23033 -24.67637,0.56927 -39.96493,0.75321 -24.74593,0.29774 -28.10666,0.73731 -30.61849,4.00466 -3.14009,4.08429 -7.49289,2.71495 -7.49289,-2.35712 0,-1.80476 2.5096,-5.84492 5.57688,-8.97812 3.06728,-3.13322 6.48946,-7.21265 7.60483,-9.06542 5.32197,-8.84058 16.52724,-22.78609 19.09767,-23.76842 5.15486,-1.96992 7.29192,2.45333 3.24189,6.70986 -2.04884,2.15334 -3.17882,4.43475 -2.51121,5.06981 0.6678,0.63506 30.56616,1.41267 66.44111,1.72802 43.89775,0.38587 65.95502,1.26592 67.45368,2.69126 4.13723,3.93518 12.71102,2.44999 15.6112,-2.70428 1.49237,-2.6522 3.86468,-4.82218 5.27188,-4.82218 1.4074,0 5.73404,-1.95298 9.61474,-4.33996 6.66995,-4.10242 7.12583,-5.07899 8.3278,-17.84206 0.69944,-7.42615 0.37436,-17.84206 -0.72236,-23.14645 -4.92935,-23.84222 -6.54259,-28.96193 -10.33568,-32.80225 -2.22446,-2.25221 -4.04455,-4.73162 -4.04455,-5.5098 0,-2.41354 -10.83193,-10.96016 -17.49985,-13.80781 -3.49031,-1.49057 -8.96579,-4.76454 -12.16773,-7.27547 -3.20194,-2.51091 -7.48397,-5.14359 -9.51558,-5.85036 -3.39723,-1.1819 -3.58056,-0.39517 -2.28469,9.79828 0.77508,6.09585 2.08332,11.95136 2.90727,13.01224 3.12813,4.02766 4.0182,12.11632 1.53071,13.91025 -1.38348,0.99769 -7.36919,2.8315 -13.30177,4.07516 -17.78599,3.72845 -21.81574,-1.29576 -18.56797,-23.14991 1.54794,-10.41623 0.15007,-20.4882 -3.60713,-25.98228 -1.43843,-2.10361 -29.568,-6.38564 -49.17063,-7.48502 -5.01919,-0.2815 -15.50535,-1.51943 -23.30264,-2.751 -7.79729,-1.23156 -20.11712,-3.02514 -27.37741,-3.98576 -17.42277,-2.30523 -19.9198,-2.81463 -21.59164,-4.40479 -0.7759,-0.73796 -5.64016,-1.34174 -10.80962,-1.34174 -5.16946,0 -16.88091,-2.06893 -26.02557,-4.59762 -9.14446,-2.52869 -16.6264,-4.00684 -16.6264,-3.28477 0,0.72207 3.72758,4.74398 8.28359,8.93758 4.55601,4.1936 9.94246,10.6627 11.97001,14.37578 2.02735,3.71308 5.51057,8.73831 7.7403,11.16718 2.57186,2.80149 5.36902,11.05635 7.65047,22.57742 3.99507,20.17592 3.20964,25.10758 -7.06844,44.37469 -6.91047,12.95449 -22.28602,33.75524 -24.95137,33.75524 -2.49519,0 -11.73639,9.05617 -11.73639,11.50148 0,0.91208 -4.83829,6.37189 -10.75181,12.13289 -11.19534,10.90676 -24.81651,19.53481 -34.37021,21.77126 -5.63914,1.32008 -7.71313,4.64004 -3.04193,4.86961 1.39421,0.0685 7.55413,0.56747 13.6887,1.10877 6.13457,0.5413 13.43521,1.1547 16.22365,1.36312 3.56555,0.26651 5.06989,1.51146 5.06989,4.19564 0,2.39412 -1.13383,3.57565 -3.04194,3.16998 -1.67306,-0.35568 -19.0999,-0.9274 -38.72645,-1.27045 -35.30976,-0.6172 -35.82101,-0.68743 -48.67095,-6.68872 -18.61461,-8.6935 -24.67739,-13.21734 -33.21873,-24.78694 l -7.56448,-10.24636 1.10827,-18.72527 c 1.07239,-18.11781 1.77528,-22.00252 5.46819,-30.22138 10.76723,-23.96374 17.17557,-34.65258 25.78323,-43.00505 2.50959,-2.43522 4.5629,-5.2562 4.5629,-6.26884 0,-1.01267 1.18899,-1.8412 2.64242,-1.8412 2.75803,0 20.17837,-11.38285 21.35499,-13.95398 0.37193,-0.81234 2.35993,-1.47699 4.41811,-1.47699 2.05817,0 4.98775,-1.18485 6.51034,-2.63301 1.52259,-1.44815 7.74761,-3.44714 13.8335,-4.44217 12.06634,-1.97283 26.63822,0.20024 65.82016,9.81555 6.69225,1.6423 14.25957,2.99955 16.81601,3.01611 l 4.64849,0.0301 -5.63184,-9.16213 c -6.73626,-10.9586 -20.74133,-25.55755 -24.51779,-25.55755 -1.48608,0 -6.80846,-2.18055 -11.82744,-4.84567 -11.24563,-5.97161 -48.1522,-12.21714 -50.53403,-8.55163 -0.65179,1.00324 -4.09729,1.82942 -7.65635,1.83596 -3.55927,0.006 -8.75266,1.15458 -11.5411,2.5512 -8.88914,4.4522 -15.17925,8.01172 -16.22365,9.1806 -0.55769,0.6242 -5.66185,4.15253 -11.34276,7.84072 -5.68071,3.6882 -12.11907,8.38544 -14.30723,10.43832 -6.51522,6.11211 -16.93709,19.55847 -16.93709,21.85215 0,1.17344 -0.92312,2.13352 -2.05127,2.13352 -2.50757,0 -14.27722,23.88847 -15.59357,31.64998 -0.52341,3.08562 -1.92676,7.85957 -3.11879,10.60879 -3.66229,8.44711 -3.85616,10.08796 -3.94904,33.40664 -0.0852,21.49714 0.22247,23.22278 6.19906,34.71969 6.17512,11.87891 12.78565,20.77814 15.43457,20.77814 2.46234,0 7.13496,5.47518 7.13496,8.36039 0,1.56711 4.33475,5.47055 9.63279,8.67431 5.29803,3.20373 11.2298,7.1915 13.18171,8.86169 1.95191,1.67017 4.86385,3.03668 6.47121,3.03668 1.60716,0 3.49539,0.88215 4.19604,1.96033 0.70046,1.07818 2.06021,1.49802 3.02146,0.93298 0.96125,-0.56504 2.2344,-0.27818 2.8294,0.63747 1.32284,2.0356 8.38154,2.63744 34.79121,2.96639 19.85694,0.24732 20.79912,0.0588 36.50321,-7.30708 8.86623,-4.15853 17.04842,-8.75164 18.18266,-10.20689 1.13443,-1.45526 4.22605,-3.69478 6.87031,-4.9767 5.57099,-2.70073 5.09382,-6.14313 -0.87182,-6.28878 -10.1264,-0.2472 -10.45614,-3.14171 -2.29605,-20.15288 2.29017,-4.77396 4.21267,-9.98072 4.27209,-11.57059 0.0588,-1.58987 1.61263,-2.89186 3.45097,-2.89331 3.39338,-0.002 5.87965,-2.2919 21.79445,-20.06678 19.45742,-21.73166 26.77165,-24.42998 64.59445,-23.8296 10.31723,0.16376 23.54964,0.23137 29.40537,0.15026 59.92691,-0.83038 100.14473,0.72493 106.83719,4.13164 2.48992,1.2675 4.14474,3.68374 3.76977,5.50454 -0.70938,3.44448 -0.3259,3.42598 -24.92582,1.20188 -7.80763,-0.70591 -41.5731,-1.40289 -75.03437,-1.54885 -67.89293,-0.29616 -66.35736,-0.58852 -69.06732,13.15043 -0.74629,3.78396 -2.16606,7.35558 -3.1551,7.9369 -0.98883,0.58134 -1.79798,2.31756 -1.79798,3.85826 0,3.92165 -13.99574,22.91401 -26.19633,35.54846 -5.63427,5.83484 -10.25841,11.15314 -10.27565,11.81847 -0.0203,0.6653 -5.46717,4.57127 -12.11116,8.67992 -6.64399,4.10863 -12.11947,8.12124 -12.16773,8.9169 -0.0487,0.79566 9.26613,1.45734 20.69874,1.4704 11.4326,0.0135 28.99977,0.48939 39.03815,1.05852 10.03838,0.56914 24.63967,1.20944 32.4473,1.42291 13.03428,0.35638 14.16142,0.71548 13.7757,4.3895 -0.41674,3.97042 0.0406,4.00026 59.14879,3.85774 32.76285,-0.0789 60.25321,-0.79462 61.08954,-1.59028 z M -381.3788,593.1257 c -26.64389,-0.48914 -36.22233,-2.17677 -33.77053,-5.95007 0.69092,-1.06323 81.60171,-1.3749 84.33154,-0.32482 0.55769,0.21453 5.80502,0.25313 11.66074,0.0858 9.06578,-0.25909 10.64698,0.21775 10.64819,3.21108 0.001,3.20359 -1.48263,3.42063 -16.73063,2.44716 -9.20267,-0.58751 -19.01351,-0.58751 -21.80195,0 -2.78844,0.58752 -18.24025,0.82643 -34.33736,0.53089 z m 159.93477,83.67106 c -0.49969,-0.47522 -3.60693,-1.14687 -6.90499,-1.49258 -7.56671,-0.79313 -10.12153,5.39378 -2.71057,6.56354 4.36558,0.68905 11.63885,-3.1466 9.61556,-5.07096 z m 6.78067,-10.99866 c -5.30128,-1.83711 -6.96238,-0.11322 -4.35544,4.52002 2.24637,3.99215 2.36703,4.00176 5.12951,0.40842 2.48161,-3.22808 2.3867,-3.83317 -0.77407,-4.92844 z m 7.55089,-7.51789 c 0,-1.06088 -1.36887,-1.92887 -3.04193,-1.92887 -1.67307,0 -3.04194,0.86799 -3.04194,1.92887 0,1.06088 1.36887,1.92887 3.04194,1.92887 1.67306,0 3.04193,-0.86799 3.04193,-1.92887 z m 2.02796,-7.71548 c 1.67306,-1.0284 2.58564,-1.94758 2.02795,-2.04268 -0.55768,-0.0951 -3.03463,-0.53215 -5.50407,-0.9713 -3.32747,-0.5917 -4.19017,-0.0552 -3.33193,2.0722 1.34615,3.33651 2.62437,3.51335 6.80805,0.94178 z m -259.0714,-6.54283 c 1.95191,-1.40931 3.54892,-3.18445 3.54892,-3.94477 0,-0.76031 2.76431,-4.01169 6.14309,-7.22531 3.37857,-3.21361 7.61254,-8.5718 9.4087,-11.90707 1.79616,-3.33527 4.27919,-6.70185 5.51766,-7.48126 1.26687,-0.79717 1.36482,-1.40434 0.22409,-1.38788 -1.11537,0.0154 -7.42333,4.74089 -14.01784,10.49959 -6.5945,5.75871 -12.75442,10.02101 -13.6887,9.47176 -0.93428,-0.54924 -1.69882,0.81584 -1.69882,3.0335 0,2.21766 -1.39219,4.54024 -3.09365,5.16128 -2.38568,0.87073 -2.5609,1.73976 -0.76575,3.79719 2.84258,3.25771 3.88962,3.25559 8.4223,-0.0174 z m -95.60657,-1.45036 c 6.11449,-0.20585 12.12961,-1.54317 13.71243,-3.04873 1.55098,-1.47513 4.09059,-2.21821 5.644,-1.65129 1.55322,0.56691 8.0516,-1.28729 14.44108,-4.12046 17.3445,-7.69083 28.88925,-16.40638 39.86982,-30.09934 6.51785,-8.12778 6.70949,-11.38493 0.58385,-9.92263 -6.11185,1.45907 -35.97371,2.42633 -40.51938,1.31246 -4.68904,-1.14895 -7.05809,-9.89764 -3.29421,-12.16481 1.5451,-0.93078 4.40817,-1.70561 6.36211,-1.72185 5.04048,-0.0419 19.41828,-14.88458 24.00654,-24.78256 8.70905,-18.78848 2.50655,-41.48894 -13.50639,-49.43132 -20.42903,-10.13265 -59.28669,5.63223 -77.80173,31.56469 -4.53411,6.35032 -8.24364,12.61032 -8.24364,13.91109 0,1.30078 -1.24395,3.73538 -2.76431,5.41024 -9.49327,10.45741 -13.64389,47.03645 -6.81616,60.07062 4.97356,9.49485 31.33598,28.21455 36.18157,25.69214 0.68829,-0.35836 6.15323,-0.81657 12.14442,-1.01825 z m 346.56614,-6.70952 c 0,-1.46143 -1.39746,-2.65713 -3.10561,-2.65713 -1.70815,0 -3.62882,-1.29702 -4.26844,-2.88224 -1.53273,-3.7992 -4.79368,-1.76112 -4.79368,2.99608 0,2.05914 1.36887,3.7439 3.04193,3.7439 1.67306,0 3.04193,1.40827 3.04193,3.12948 0,2.56308 0.55059,2.69488 3.04194,0.72826 1.67306,-1.32068 3.04193,-3.59694 3.04193,-5.05835 z m 188.599924,0.12229 c 0,-1.65393 -0.927385,-2.46193 -2.061012,-1.79558 -1.133628,0.66634 -1.535974,2.01956 -0.894329,3.00714 1.738364,2.67543 2.955341,2.17656 2.955341,-1.21156 z m -87.202114,-0.85055 c 0,-1.06088 -0.96652,-1.92887 -2.14761,-1.92887 -1.18128,0 -1.58363,0.86799 -0.89432,1.92887 0.6893,1.06088 1.65582,1.92887 2.1476,1.92887 0.49198,0 0.89433,-0.86799 0.89433,-1.92887 z m -254.86014,-12.11441 c -1.52827,-2.35184 -6.7462,3.80194 -6.7462,7.95603 0,1.94091 1.25104,1.44779 4.01373,-1.58208 2.20763,-2.421 3.43718,-5.28929 2.73247,-6.37395 z m 11.09981,7.87089 c 1.33845,-1.27306 2.43355,-3.47357 2.43355,-4.89004 0,-1.97769 -0.94138,-2.09624 -4.05591,-0.5108 -2.23075,1.13553 -4.05591,3.33604 -4.05591,4.89004 0,3.42594 2.38751,3.64072 5.67827,0.5108 z m 189.00551,-0.57866 c 2.06771,-2.36964 1.929,-2.89331 -0.76575,-2.89331 -1.80955,0 -3.29016,1.30199 -3.29016,2.89331 0,1.59132 0.34455,2.89331 0.76576,2.89331 0.421,0 1.90161,-1.30199 3.29015,-2.89331 z m 26.36343,1.28592 c 0,-2.51155 -2.41083,-4.18187 -4.37186,-3.02908 -2.09732,1.23291 -0.28878,4.63647 2.46356,4.63647 1.04967,0 1.9083,-0.72333 1.9083,-1.60739 z m -242.15682,-5.61169 c -1.40639,-1.33765 -5.25382,1.38021 -5.25382,3.71135 0,1.27903 1.16364,1.13269 3.09101,-0.38871 1.70003,-1.34195 2.67325,-2.83714 2.16281,-3.32264 z m 43.06973,1.24463 c 1.46094,-2.22507 2.14254,-4.53439 1.51428,-5.13182 -1.34555,-1.27983 -9.27871,5.17317 -9.27871,7.54748 0,3.17367 5.14573,1.57274 7.76443,-2.41566 z m 144.48093,-1.74104 c 1.03365,0 1.8793,-0.86799 1.8793,-1.92887 0,-2.68613 -6.78736,-2.41715 -9.73419,0.38577 -1.89269,1.80028 -2.43354,1.39695 -2.43354,-1.81503 0,-5.75895 -4.12791,-7.58239 -7.43287,-3.28338 -3.47916,4.52563 -2.59091,7.22328 2.49581,7.57971 2.1762,0.15258 5.7744,1.25444 7.99603,2.44874 3.19504,1.71784 4.17576,1.59088 4.69451,-0.60774 0.36057,-1.52856 1.5013,-2.7792 2.53495,-2.7792 z m -133.06637,2.06216 c 0.64164,-0.98759 0.2393,-2.3408 -0.89433,-3.00715 -1.13363,-0.66635 -2.06101,0.14158 -2.06101,1.79558 0,3.38812 1.21697,3.88699 2.95534,1.21157 z m -124.75743,-16.47752 c 9.6482,-10.65277 12.59604,-12.89076 15.55605,-11.81038 1.88965,0.68966 3.65579,-0.68865 4.91313,-3.83417 2.60937,-6.52786 2.47491,-8.52301 -0.57189,-8.49028 -3.08006,0.0332 -19.77257,14.083 -19.77257,16.64244 0,1.0039 -3.65032,5.54863 -8.11183,10.09937 -4.4615,4.55077 -8.11182,9.22063 -8.11182,10.37749 0,2.35295 8.19173,-4.25396 16.09893,-12.98447 z m 253.61924,-4.87335 c 0,-1.06088 -0.96653,-1.92887 -2.14761,-1.92887 -1.18128,0 -1.58363,0.86799 -0.89433,1.92887 0.6893,1.06088 1.65583,1.92887 2.14761,1.92887 0.49198,0 0.89433,-0.86799 0.89433,-1.92887 z m 9.75953,-1.80832 c 0.50699,-1.44665 -0.25349,-2.16998 -1.77446,-1.68776 -1.46398,0.46412 -3.06099,1.98313 -3.54892,3.37552 -0.50699,1.44666 0.25349,2.16998 1.77446,1.68777 1.46398,-0.46413 3.061,-1.98313 3.54892,-3.37553 z m 4.00927,-17.22671 c 0.82092,-2.34269 -5.30614,-2.92968 -10.56098,-1.01175 -5.4842,2.00167 -3.52479,4.19099 3.29421,3.68079 3.57589,-0.26758 6.84597,-1.46864 7.26677,-2.66904 z m -314.35429,-3.79773 c 1.09632,-3.12831 16.62174,-2.68432 22.7555,0.65074 2.78844,1.51613 5.69997,2.78737 6.47019,2.82495 2.65581,0.12962 20.19074,-31.72554 22.34138,-40.58679 1.20218,-4.95363 1.53963,-13.57248 0.76272,-19.48554 l -1.3928,-10.60296 -7.59936,-0.28322 c -6.61783,-0.24664 -22.11973,-4.42028 -33.25686,-8.95382 -5.34934,-2.17752 -4.50734,3.41104 1.95718,12.99074 7.53142,11.16102 7.09846,23.8783 -1.35528,39.8071 l -6.17594,11.63661 11.51737,-0.34741 c 7.13212,-0.21515 11.81143,0.49147 12.28962,1.8559 0.94584,2.69915 -6.88086,6.96459 -9.71858,5.29647 -1.12653,-0.6623 -5.44242,-1.50898 -9.59081,-1.88152 -5.54889,-0.4983 -8.7484,0.39505 -12.10528,3.3801 -2.50959,2.23157 -4.5629,4.6973 -4.5629,5.47938 0,2.27171 6.7971,0.69237 7.66385,-1.78073 z m 310.72527,-19.60241 c 0,-1.06088 -2.73774,-1.92887 -6.08387,-1.92887 -3.34613,0 -6.08387,0.86799 -6.08387,1.92887 0,1.06088 2.73774,1.92887 6.08387,1.92887 3.34613,0 6.08387,-0.86799 6.08387,-1.92887 z m -6.08387,-18.32428 c -2.67163,-3.06177 -10.13978,-4.00889 -10.13978,-1.28592 0,2.79525 2.54468,4.17923 7.68413,4.17923 4.19685,0 4.58318,-0.45506 2.45565,-2.89331 z m -14.19569,-19.17487 c 0,-0.46783 -0.91258,-1.38705 -2.02796,-2.04271 -1.11538,-0.65566 -2.02796,-0.2729 -2.02796,0.85059 0,1.12349 0.91258,2.04272 2.02796,2.04272 1.11538,0 2.02796,-0.38277 2.02796,-0.8506 z m -66.92256,-6.79703 c 0,-1.02356 -1.82516,-2.79007 -4.05591,-3.9256 -3.4384,-1.75024 -4.05591,-1.46689 -4.05591,1.86101 0,2.63968 1.32851,3.9256 4.05591,3.9256 2.23075,0 4.05591,-0.83745 4.05591,-1.86101 z m 213.847977,-3.72708 c -2.821901,-2.53442 -20.710907,-4.97317 -18.150207,-2.47434 1.777909,1.735 6.932365,2.91281 17.136229,3.91569 1.809951,0.17784 2.199927,-0.37623 1.013978,-1.44135 z m -27.935096,-4.29172 c -2.035662,-1.12586 -4.157512,-1.61281 -4.715606,-1.08208 -0.557891,0.53073 -3.683579,0.23689 -6.945745,-0.65298 -3.27962,-0.89461 -5.93117,-0.87576 -5.93117,0.042 0,1.84225 5.94962,3.22538 15.209673,3.53593 5.222595,0.17514 5.559845,-0.0858 2.382848,-1.843 z M -193.8474,484.81013 c -0.73514,-1.13146 -2.30721,-2.0572 -3.49336,-2.0572 -1.34474,0 -1.19082,1.10675 0.40883,2.93993 2.78135,3.18765 5.26721,2.47628 3.08453,-0.88273 z m -107.02296,-10.15501 c -1.01296,-2.89022 -4.52984,-2.06119 -5.2524,1.23811 -0.45122,2.06167 0.36138,2.61774 2.62073,1.79311 1.80123,-0.65743 2.98555,-2.02147 2.63167,-3.03122 z m 43.46458,-1.93232 c -1.30134,-1.2377 -3.0391,-1.61003 -3.86204,-0.82741 -0.82274,0.78262 -0.18049,2.19654 1.42849,3.14205 3.78741,2.22636 5.49759,0.59971 2.43355,-2.31464 z m -33.29681,-15.20691 c 0.4206,-2.10114 -0.83937,-3.00453 -4.03523,-2.89331 -3.47206,0.12075 -4.82856,-1.05718 -5.36597,-4.66046 -0.76758,-5.14586 -14.94502,-16.90017 -30.20701,-25.04427 -4.74035,-2.52955 -8.61882,-5.30733 -8.61882,-6.17285 0,-0.86553 -1.36887,-1.57369 -3.04193,-1.57369 -1.67307,0 -3.04194,-0.868 -3.04194,-1.92888 0,-3.52526 -5.9054,-1.99227 -8.22843,2.13596 -2.63654,4.68583 -2.0531,5.35867 10.25639,11.82832 16.97156,8.91987 24.33547,13.41522 24.33547,14.85559 0,0.78902 3.1334,3.03961 6.96319,5.00127 3.8296,1.96168 8.11223,5.60879 9.51659,8.10468 2.8797,5.1181 10.46669,5.34808 11.46769,0.34764 z m 23.5107,-13.38984 c -1.15999,-1.10324 -3.61381,-1.45667 -5.45297,-0.7854 -2.66818,0.97387 -2.9016,2.00651 -1.15512,5.11045 2.01193,3.57537 2.45281,3.63889 5.45297,0.7854 2.25955,-2.14917 2.61505,-3.72186 1.15512,-5.11045 z m 45.86609,4.54835 c 11.80311,-1.5794 21.58232,-5.4446 18.44345,-7.28978 -1.30155,-0.76513 -4.68823,-4.88932 -7.52595,-9.1649 -4.83972,-7.29206 -5.62069,-7.70358 -12.60436,-6.64143 -13.86047,2.10808 -25.57334,8.90334 -26.35633,15.29057 -0.1014,0.83356 -1.5956,2.85652 -3.31875,4.49546 -6.98834,6.64686 0.51064,7.43831 31.36194,3.31008 z m -68.93287,-12.42075 c 0,-2.20395 -5.49941,-2.25373 -6.92304,-0.0627 -0.59317,0.91292 -0.55789,2.15509 0.0791,2.76041 1.58242,1.50523 6.84436,-0.56873 6.84436,-2.69774 z m 30.8588,-2.07612 c -3.09142,-2.94032 -4.97437,-1.1493 -3.25994,3.1005 0.9432,2.33789 1.96164,2.6993 3.49539,1.24052 1.53374,-1.45879 1.46499,-2.72353 -0.23545,-4.34102 z m 17.43191,-14.9568 c 0.50698,-1.44665 -0.2535,-2.16998 -1.77447,-1.68776 -1.46398,0.46412 -3.06099,1.98313 -3.54892,3.37552 -0.50699,1.44666 0.2535,2.16998 1.77446,1.68777 1.46398,-0.46415 3.061,-1.98313 3.54893,-3.37553 z m -78.71005,-3.9783 c 0,-1.06087 -2.28145,-1.92887 -5.06989,-1.92887 -2.78844,0 -5.06989,0.868 -5.06989,1.92887 0,1.06088 2.28145,1.92888 5.06989,1.92888 2.78844,0 5.06989,-0.868 5.06989,-1.92888 z m 102.87659,-1.16536 c -0.67389,-0.64095 -2.423,-0.70948 -3.88698,-0.15219 -1.6177,0.61575 -1.13728,1.07282 1.22529,1.16537 2.13767,0.0837 3.33558,-0.37214 2.66169,-1.01308 z m -140.39378,-4.62125 c 0.6893,-1.06088 0.28696,-1.92887 -0.89433,-1.92887 -1.18108,0 -2.1476,0.86799 -2.1476,1.92887 0,1.06088 0.40234,1.92887 0.89432,1.92887 0.49178,0 1.45831,-0.86799 2.14761,-1.92887 z m 17.23763,-4.70833 c 0,-2.03589 -3.89185,-2.89121 -5.04941,-1.10974 -0.70066,1.07818 0.14804,1.96033 1.88782,1.96033 1.73877,0 3.16159,-0.38277 3.16159,-0.85059 z"
       style="fill:#000000" />
  </g>
</svg>
